# xmcd CD database file
#
# Track frame offsets:
#	150
#	24469
#	43504
#	59909
#	72544
#	88837
#	101695
#	111921
#	124935
#	143282
#	161130
#	178507
#
# Disc length: 2597 seconds
#
# Revision: 1
# Processed by: cddbd v1.5.2PL0 Copyright (c) Steve Scherf et al.
# Submitted via: jetAudio 7
#
DISCID=ad0a230c
DTITLE=Antonio Carlos Jobim - The Millennium Collection
DYEAR=1900
DGENRE=Jazz
TTITLE0=The Girl From Ipanema
TTITLE1=Desafinado
TTITLE2=So Danco Samba
TTITLE3=Insensatez (How Insensitive)
TTITLE4=Amon Em Paz (Once I Loved)
TTITLE5=Aqua De Beber
TTITLE6=Samba De Uma Nota So (One Note Samba)
TTITLE7=Wave
TTITLE8=Tide
TTITLE9=Waters Of March (Aguas De Margo)
TTITLE10=Corcovado (Quiet Nights Of Quiet Stars)
TTITLE11=Passarim
EXTD=
EXTT0=
EXTT1=
EXTT2=
EXTT3=
EXTT4=
EXTT5=
EXTT6=
EXTT7=
EXTT8=
EXTT9=
EXTT10=
EXTT11=
PLAYORDER=
